<svg id="_3643769_building_home_house_main_menu_icon" data-name="3643769_building_home_house_main_menu_icon" xmlns="http://www.w3.org/2000/svg" width="25.194" height="23.322" viewBox="0 0 25.194 23.322">
  <path id="Path_25" data-name="Path 25" d="M25.428,15a.757.757,0,0,1-.488-.19l-11.3-9.58-11.3,9.58a.762.762,0,0,1-1.114-.278,1.136,1.136,0,0,1,.137-1.342l11.787-10a.736.736,0,0,1,.977,0l11.787,10a1.11,1.11,0,0,1,.308,1.115A.872.872,0,0,1,25.428,15Z" transform="translate(-1.07 -3)" fill="#fcb544"/>
  <path id="Path_26" data-name="Path 26" d="M5,9A1,1,0,0,1,4,8V4A1,1,0,0,1,5,3H9A1,1,0,0,1,9,5H6V8A1,1,0,0,1,5,9Z" transform="translate(-1.07 -3)" fill="#fcb544"/>
  <path id="Path_27" data-name="Path 27" d="M20.862,29H16.847a.918.918,0,0,1-.8-1V21H11.227v7a.918.918,0,0,1-.8,1H6.409A2.754,2.754,0,0,1,4,26V16a.918.918,0,0,1,.8-1,.918.918,0,0,1,.8,1V26a.918.918,0,0,0,.8,1H9.621V20a.918.918,0,0,1,.8-1h6.424a.918.918,0,0,1,.8,1v7h3.212a.918.918,0,0,0,.8-1V16a.822.822,0,1,1,1.606,0V26a2.754,2.754,0,0,1-2.409,3Z" transform="translate(-1.07 -5.678)" fill="#fcb544"/>
</svg>
